# xmcd CD database file
#
# Track frame offsets:
#	150
#	23690
#	45578
#	79062
#	101915
#	133578
#	159682
#	186908
#	207297
#	241089
#	275578
#
# Disc length: 4228 seconds
#
# Revision: 0
# Processed by: cddbd v1.5.1PL0 Copyright (c) Steve Scherf et al.
# Submitted via: CDex 1.51
#
DISCID=9310820b
DTITLE=Stockholm Cyclo - Beginning People
DYEAR=1900
DGENRE=エレクトロニック (一般)
TTITLE0=Beginning People feat.M Elino
TTITLE1=In Select
TTITLE2=Your Guide feat.Nils Berg and M Elino
TTITLE3=Noisuf(Raw Jazz Take)
TTITLE4=Brain To Feet(Plain Jane Mix)
TTITLE5=Not Your Body feat.M Elino
TTITLE6=Moving Your Mind feat.M Elino
TTITLE7=Face feat.M Elino
TTITLE8=Music Is All This feat.Gustaf Karlof
TTITLE9=X-Ray Delta 1
TTITLE10=Moving Your Mind(D.A.T. Remix)
EXTD=
EXTT0=
EXTT1=
EXTT2=
EXTT3=
EXTT4=
EXTT5=
EXTT6=
EXTT7=
EXTT8=
EXTT9=
EXTT10=
PLAYORDER=
